<svg xmlns="http://www.w3.org/2000/svg" viewBox="0 0 1000 1000"><path d="M812.8 948.8H174.4c-17.8 0-32.2-14.4-32.2-32.2V370.8h64.4v513.5h573.9V370.8H845v545.8c0 17.7-14.4 32.2-32.2 32.2z"/><path d="M957.8 533.2c-7.7 0-15.5-2.7-21.7-8.3L496.5 127.1 64 524.7c-13 12.1-33.4 11.3-45.5-1.9-12.1-13.1-11.1-33.5 1.9-45.6L474.5 59.7c12.2-11.2 31.1-11.3 43.4-.1l461.5 417.5c13.1 11.9 14.2 32.3 2.3 45.5-6.4 7-15.2 10.6-23.9 10.6zM625.2 832.6h-64.4V619.1H426.5v213.5H362V586.9c0-17.8 14.4-32.2 32.2-32.2h198.7c17.8 0 32.2 14.4 32.2 32.2l.1 245.7z"/></svg>